<?xml version="1.0" encoding="utf-8"?>
<!-- Generator: Adobe Illustrator 20.1.0, SVG Export Plug-In . SVG Version: 6.00 Build 0)  -->
<svg version="1.1" xmlns="http://www.w3.org/2000/svg" xmlns:xlink="http://www.w3.org/1999/xlink" x="0px" y="0px"
	 viewBox="0 0 2800 2800" style="enable-background:new 0 0 2800 2800;" xml:space="preserve">
<g id="Layer_2">
	<rect x="-39.4" y="-44.3" style="fill:#2E303B;" width="2878.8" height="2888.6"/>
</g>
<g id="Capa_3">
	<g>
		<g>
			<circle style="fill:#9A8BC1;" cx="583.8" cy="535.6" r="345.8"/>
		</g>
		<g>
			<path style="fill:#FFFFFF;" d="M583.8,373.9c-57.7,0-104.6,46.9-104.6,104.6c0,23.2,16.2,66.4,48,128.3
				c23.3,45.3,46.9,84.7,47.1,85.1c2,3.3,5.6,5.3,9.4,5.3s7.4-2,9.4-5.3c0.2-0.4,23.8-39.8,47.1-85.1c31.9-61.9,48-105.1,48-128.3
				C688.4,420.8,641.5,373.9,583.8,373.9z M583.8,664.5c-29.5-51.2-82.6-150.4-82.6-186c0-45.5,37-82.6,82.6-82.6s82.6,37,82.6,82.6
				C666.4,514.1,613.4,613.4,583.8,664.5z"/>
			<path style="fill:#FFFFFF;" d="M583.8,432.4c-25.4,0-46.1,20.7-46.1,46.1c0,25.4,20.7,46.1,46.1,46.1s46.1-20.7,46.1-46.1
				C629.9,453.1,609.3,432.4,583.8,432.4z M583.8,502.6c-13.3,0-24.1-10.8-24.1-24.1c0-13.3,10.8-24.1,24.1-24.1
				s24.1,10.8,24.1,24.1C607.9,491.8,597.1,502.6,583.8,502.6z"/>
		</g>
	</g>
	<g>
		<g>
			<circle style="fill:#47ADA3;" cx="1400" cy="535.6" r="345.8"/>
		</g>
		<path style="fill:#FFFFFF;" d="M1566.2,431.5c0-0.2,0-0.5,0-0.7c0-0.1,0-0.2,0-0.3c0-0.2-0.1-0.5-0.1-0.7c0-0.1,0-0.2-0.1-0.3
			c-0.1-0.3-0.1-0.6-0.2-0.9c0,0,0,0,0,0c0-0.1-0.1-0.3-0.1-0.4c-0.1-0.2-0.1-0.4-0.2-0.5c-0.1-0.1-0.1-0.3-0.2-0.4
			c-0.1-0.2-0.2-0.3-0.2-0.5c-0.1-0.1-0.1-0.2-0.2-0.4c-0.1-0.2-0.2-0.4-0.3-0.5c-0.1-0.1-0.1-0.2-0.2-0.3c-0.1-0.2-0.3-0.4-0.5-0.6
			c0,0-0.1-0.1-0.1-0.1c-0.2-0.3-0.4-0.5-0.7-0.7c-0.1-0.1-0.1-0.1-0.2-0.2c-0.2-0.2-0.4-0.3-0.6-0.5c-0.1-0.1-0.2-0.1-0.3-0.2
			c-0.2-0.1-0.3-0.3-0.5-0.4c-0.1-0.1-0.2-0.1-0.3-0.2c-0.2-0.1-0.3-0.2-0.5-0.3c-0.1-0.1-0.2-0.1-0.3-0.2c-0.2-0.1-0.5-0.2-0.7-0.4
			c-0.1-0.1-0.3-0.1-0.4-0.2c-0.2-0.1-0.4-0.2-0.6-0.2c-0.1,0-0.3-0.1-0.4-0.1c-0.2-0.1-0.4-0.1-0.6-0.1c-0.1,0-0.3-0.1-0.4-0.1
			c-0.2,0-0.4-0.1-0.6-0.1c-0.1,0-0.2,0-0.3,0c-0.3,0-0.7-0.1-1-0.1h-310.3c-0.3,0-0.7,0-1,0.1c-0.1,0-0.2,0-0.3,0
			c-0.2,0-0.4,0.1-0.6,0.1c-0.1,0-0.3,0.1-0.4,0.1c-0.2,0-0.4,0.1-0.6,0.1c-0.1,0-0.3,0.1-0.4,0.1c-0.2,0.1-0.4,0.1-0.6,0.2
			c-0.1,0.1-0.3,0.1-0.4,0.2c-0.2,0.1-0.5,0.2-0.7,0.3c-0.1,0.1-0.2,0.1-0.3,0.2c-0.2,0.1-0.3,0.2-0.5,0.3c-0.1,0.1-0.2,0.1-0.3,0.2
			c-0.2,0.1-0.3,0.2-0.5,0.4c-0.1,0.1-0.2,0.1-0.3,0.2c-0.2,0.2-0.4,0.3-0.5,0.5c-0.1,0.1-0.1,0.1-0.2,0.2c-0.2,0.2-0.4,0.5-0.7,0.7
			c0,0.1-0.1,0.1-0.1,0.2c-0.2,0.2-0.3,0.4-0.5,0.6c-0.1,0.1-0.1,0.2-0.2,0.3c-0.1,0.2-0.2,0.3-0.3,0.5c-0.1,0.1-0.1,0.2-0.2,0.4
			c-0.1,0.2-0.2,0.3-0.2,0.5c-0.1,0.1-0.1,0.3-0.2,0.4c-0.1,0.2-0.1,0.3-0.2,0.5c-0.1,0.1-0.1,0.3-0.2,0.4c0,0,0,0,0,0
			c-0.1,0.3-0.2,0.6-0.2,0.9c0,0.1,0,0.2-0.1,0.3c0,0.2-0.1,0.5-0.1,0.7c0,0.1,0,0.2,0,0.3c0,0.2,0,0.5,0,0.7c0,0.1,0,0.1,0,0.2
			v207.7c0,6.1,4.9,11,11,11h310.3c6.1,0,11-4.9,11-11V431.7C1566.2,431.7,1566.2,431.6,1566.2,431.5z M1519,442.7l-119,79.6
			l-119-79.6H1519z M1255.8,628.5V452.3l138,92.4c1.9,1.2,4,1.9,6.1,1.9s4.3-0.6,6.1-1.9l138-92.4v176.1H1255.8z"/>
	</g>
	<g>
		<g>
			<circle style="fill:#47ADA3;" cx="583.8" cy="1400" r="345.8"/>
		</g>
		<path style="fill:#FFFFFF;" d="M583.8,1246.5c-83.2,0-150.9,67.7-150.9,150.9s67.7,150.9,150.9,150.9
			c83.2,0,150.9-67.7,150.9-150.9S667.1,1246.5,583.8,1246.5z M712.2,1385.1h-43.5c-1.8-42.5-13.2-79.5-30.4-104.5
			C678.7,1299.5,707.8,1338.7,712.2,1385.1z M572.8,1270.6v114.5H521c1.5-30.9,8.5-59.5,20.1-81.5
			C550.1,1286.6,561.3,1275.1,572.8,1270.6z M572.8,1407.1v117.1c-11.6-4.5-22.7-16-31.7-33c-12-22.6-19-52.2-20.2-84.1H572.8z
			 M594.8,1524.2v-117.1h51.9c-1.2,31.9-8.3,61.5-20.2,84.1C617.6,1508.2,606.4,1519.6,594.8,1524.2z M594.8,1385.1v-114.5
			c11.6,4.5,22.7,16,31.7,33c11.6,22,18.7,50.6,20.1,81.5H594.8z M529.3,1280.5c-17.2,25.1-28.5,62.1-30.4,104.5h-43.5
			C459.9,1338.7,488.9,1299.5,529.3,1280.5z M455.3,1407.1h43.6c1.5,43.5,12.9,81.6,30.5,107.2
			C488.2,1495,458.8,1454.6,455.3,1407.1z M638.3,1514.2c17.5-25.6,29-63.6,30.5-107.2h43.6C708.9,1454.6,679.5,1495,638.3,1514.2z"
			/>
	</g>
	<g>
		<g>
			<circle style="fill:#EB5688;" cx="1400" cy="1400" r="345.8"/>
		</g>
		<g>
			<path style="fill:#FFFFFF;" d="M1400,1253.6c-85.6,0-155.2,60.7-155.2,135.3c0,32.6,13.3,63.8,37.6,88.3l-11.8,56.1
				c-0.9,4.2,0.8,8.5,4.2,11.1c1.9,1.4,4.3,2.2,6.6,2.2c1.8,0,3.6-0.4,5.2-1.3l56.3-30.5c18.2,6.3,37.4,9.5,57.1,9.5
				c85.6,0,155.2-60.7,155.2-135.3S1485.6,1253.6,1400,1253.6z M1400,1502.1c-18.8,0-37-3.3-54.1-9.8c-3-1.1-6.3-0.9-9.1,0.6
				l-39.7,21.5l8.2-38.7c0.8-3.8-0.5-7.7-3.3-10.3c-22.6-21-35.1-48.1-35.1-76.6c0-62.5,59.7-113.3,133.2-113.3
				c73.4,0,133.2,50.8,133.2,113.3S1473.4,1502.1,1400,1502.1z"/>
			<path style="fill:#FFFFFF;" d="M1476.4,1350.7h-152.9c-6.1,0-11,4.9-11,11s4.9,11,11,11h152.9c6.1,0,11-4.9,11-11
				S1482.5,1350.7,1476.4,1350.7z"/>
			<path style="fill:#FFFFFF;" d="M1476.4,1402.4h-152.9c-6.1,0-11,4.9-11,11s4.9,11,11,11h152.9c6.1,0,11-4.9,11-11
				S1482.5,1402.4,1476.4,1402.4z"/>
		</g>
	</g>
	<g>
		<g>
			<circle style="fill:#EB5688;" cx="583.8" cy="2264.4" r="345.8"/>
		</g>
		<g>
			<path style="fill:#FFFFFF;" d="M651,2061.4H516.7c-28.1,0-50.9,22.8-50.9,50.9v27.8v248.7v27.8c0,28.1,22.8,50.9,50.9,50.9H651
				c28.1,0,50.9-22.8,50.9-50.9v-27.8v-248.7v-27.8C701.9,2084.2,679.1,2061.4,651,2061.4z M516.7,2083.4H651
				c15.9,0,28.9,13,28.9,28.9v16.8H487.8v-16.8C487.8,2096.4,500.8,2083.4,516.7,2083.4z M679.9,2377.8H487.8v-226.7h192.1V2377.8z
				 M651,2445.4H516.7c-15.9,0-28.9-13-28.9-28.9v-16.8h192.1v16.8C679.9,2432.5,666.9,2445.4,651,2445.4z"/>
			<path style="fill:#FFFFFF;" d="M602.5,2412.6h-37.3c-6.1,0-11,4.9-11,11s4.9,11,11,11h37.3c6.1,0,11-4.9,11-11
				S608.6,2412.6,602.5,2412.6z"/>
		</g>
	</g>
	<g>
		<g>
			<circle style="fill:#9A8BC1;" cx="1400" cy="2264.4" r="345.8"/>
		</g>
		<g>
			<path style="fill:#FFFFFF;" d="M1368.4,2268.5c4.6-7.7,7.1-16.6,7.1-25.8c0-28-22.8-50.8-50.8-50.8c-28,0-50.8,22.8-50.8,50.8
				c0,9.2,2.5,18.1,7.1,25.8c-15.1,7.4-25.7,24.7-25.7,44.7v12.8c0,6.1,4.9,11,11,11h116.9c6.1,0,11-4.9,11-11v-12.8
				C1394.1,2293.2,1383.5,2275.9,1368.4,2268.5z M1372.1,2315h-94.9v-1.8c0-14.4,9.3-26.6,20.3-26.6h4.8c4.8,0,9.1-3.1,10.5-7.8
				c1.4-4.6-0.3-9.6-4.3-12.3c-7.9-5.4-12.6-14.3-12.6-23.8c0-15.9,12.9-28.8,28.8-28.8c15.9,0,28.8,12.9,28.8,28.8
				c0,9.5-4.7,18.5-12.6,23.8c-4,2.7-5.7,7.7-4.3,12.3c1.4,4.6,5.7,7.8,10.5,7.8h4.8c11,0,20.3,12.2,20.3,26.6V2315z"/>
			<path style="fill:#FFFFFF;" d="M1552.3,2126.1h-304.6c-25.4,0-46.1,20.7-46.1,46.1v184.4c0,25.4,20.7,46.1,46.1,46.1h304.6
				c25.4,0,46.1-20.7,46.1-46.1v-184.4C1598.4,2146.8,1577.8,2126.1,1552.3,2126.1z M1576.4,2356.6c0,13.3-10.8,24.1-24.1,24.1
				h-304.6c-13.3,0-24.1-10.8-24.1-24.1v-184.4c0-13.3,10.8-24.1,24.1-24.1h304.6c13.3,0,24.1,10.8,24.1,24.1V2356.6z"/>
			<path style="fill:#FFFFFF;" d="M1520.5,2235.3h-84.8c-6.1,0-11,4.9-11,11s4.9,11,11,11h84.8c6.1,0,11-4.9,11-11
				S1526.6,2235.3,1520.5,2235.3z"/>
			<path style="fill:#FFFFFF;" d="M1520.5,2271.5h-84.8c-6.1,0-11,4.9-11,11s4.9,11,11,11h84.8c6.1,0,11-4.9,11-11
				S1526.6,2271.5,1520.5,2271.5z"/>
		</g>
	</g>
	<g>
		<g>
			<circle style="fill:#9A8BC1;" cx="2216.2" cy="1400" r="345.8"/>
		</g>
		<path style="fill:#FFFFFF;" d="M2372.8,1392.3l-42.4-32.9c-0.3-0.3-0.7-0.6-1-0.9L2223,1276c-4-3.1-9.5-3.1-13.5,0l-106.4,82.6
			c0,0,0,0,0,0l-43.5,33.8c-4.8,3.7-5.7,10.6-1.9,15.4c2.2,2.8,5.4,4.3,8.7,4.3c2.4,0,4.7-0.8,6.7-2.3l25.8-20v130.4
			c0,6.1,4.9,11,11,11h80.2h52.5h80.2c6.1,0,11-4.9,11-11v-130.3l25.6,19.9c2,1.6,4.4,2.3,6.7,2.3c3.3,0,6.5-1.5,8.7-4.3
			C2378.5,1403,2377.6,1396,2372.8,1392.3z M2201,1509.1v-74h30.5v74H2201z M2311.7,1509.1h-58.2v-85c0-6.1-4.9-11-11-11H2190
			c-6.1,0-11,4.9-11,11v85h-58.2v-136.5l58.7-45.5c0,0,0,0,0,0l36.8-28.5l35.6,27.6c0.3,0.3,0.6,0.6,1,0.9l58.8,45.6V1509.1z"/>
	</g>
	<g>
		<g>
			<circle style="fill:#47ADA3;" cx="2216.2" cy="2264.4" r="345.8"/>
		</g>
		<g>
			<path style="fill:#FFFFFF;" d="M2306.3,2399.4c-2.3,0-4.5-0.7-6.5-2.1l-83.6-60.8l-83.6,60.8c-3.9,2.8-9.1,2.8-12.9,0
				c-3.9-2.8-5.5-7.8-4-12.3l31.9-98.3l-83.6-60.8c-3.9-2.8-5.5-7.8-4-12.3s5.7-7.6,10.5-7.6h103.4l31.9-98.3
				c1.5-4.5,5.7-7.6,10.5-7.6s9,3.1,10.5,7.6l31.9,98.3H2362c4.8,0,9,3.1,10.5,7.6s-0.1,9.5-4,12.3l-83.6,60.8l31.9,98.3
				c1.5,4.5-0.1,9.5-4,12.3C2310.8,2398.7,2308.5,2399.4,2306.3,2399.4z M2216.2,2312c2.3,0,4.5,0.7,6.5,2.1l62.7,45.6l-24-73.7
				c-1.5-4.5,0.1-9.5,4-12.3l62.7-45.6h-77.5c-4.8,0-9-3.1-10.5-7.6l-24-73.7l-24,73.7c-1.5,4.5-5.7,7.6-10.5,7.6h-77.5l62.7,45.6
				c3.9,2.8,5.5,7.8,4,12.3l-24,73.7l62.7-45.6C2211.6,2312.7,2213.9,2312,2216.2,2312z"/>
		</g>
	</g>
	<g>
		<g>
			<circle style="fill:#EB5688;" cx="2216.2" cy="535.6" r="345.8"/>
		</g>
		<path style="fill:#FFFFFF;" d="M2436.3,444.1c-2.9-2.1-6.6-2.6-9.9-1.5l-74.8,25.1v-7.2c0-22.3-18.1-40.4-40.4-40.4h-279.2
			c-22.3,0-40.4,18.1-40.4,40.4v150.2c0,22.3,18.1,40.4,40.4,40.4h279.2c20.9,0,38.2-16,40.2-36.4l75,25.2c1.1,0.4,2.3,0.6,3.5,0.6
			c2.3,0,4.5-0.7,6.4-2.1c2.9-2.1,4.6-5.4,4.6-8.9V453C2440.8,449.4,2439.1,446.1,2436.3,444.1z M2329.5,610.7
			c0,10.2-8.3,18.4-18.4,18.4h-279.2c-10.2,0-18.4-8.3-18.4-18.4V460.5c0-10.2,8.3-18.4,18.4-18.4h279.2c10.2,0,18.4,8.3,18.4,18.4
			V483v116.6V610.7z M2418.8,614.3l-67.3-22.6V490.9l67.3-22.6V614.3z"/>
	</g>
</g>
</svg>
