<svg xmlns="http://www.w3.org/2000/svg" viewBox="0 0 439.7 386.69"><defs><style>.cls-1{fill:#ff7562;}.cls-2{fill:#262d39;}.cls-3{fill:#e6e7e8;}.cls-4{fill:#fff;}</style></defs><title>attention</title><g id="Слой_2" data-name="Слой 2"><g id="Слой_1-2" data-name="Слой 1"><path class="cls-1" d="M23.63,384.51C4.53,384.51-3.29,371,6.27,354.43L202.48,14.58C212-2,227.66-2,237.22,14.58L433.43,354.43c9.55,16.54,1.74,30.08-17.37,30.08Z"/><path class="cls-2" d="M416.06,386.69H23.63c-10,0-17.62-3.52-21.31-9.92s-3-14.71,2.06-23.41L200.6,13.49C205.62,4.79,212.46,0,219.85,0s14.22,4.79,19.25,13.49L435.31,353.35c5,8.7,5.76,17,2.07,23.41S426.11,386.69,416.06,386.69ZM219.85,4.34c-5.77,0-11.27,4-15.49,11.32L8.15,355.52c-4.22,7.3-4.95,14.08-2.06,19.07s9.12,7.75,17.55,7.75H416.06c8.43,0,14.67-2.75,17.55-7.75s2.15-11.77-2.06-19.07L235.34,15.67C231.12,8.36,225.62,4.34,219.85,4.34Z"/><circle class="cls-3" cx="219.85" cy="44.01" r="11.4"/><path class="cls-2" d="M219.85,57.58A13.57,13.57,0,1,1,233.42,44,13.58,13.58,0,0,1,219.85,57.58Zm0-22.79A9.23,9.23,0,1,0,229.08,44,9.24,9.24,0,0,0,219.85,34.79Z"/><circle class="cls-3" cx="39.78" cy="356.29" r="11.4"/><path class="cls-2" d="M39.78,369.86a13.57,13.57,0,1,1,13.57-13.57A13.59,13.59,0,0,1,39.78,369.86Zm0-22.8A9.23,9.23,0,1,0,49,356.29,9.24,9.24,0,0,0,39.78,347.06Z"/><circle class="cls-3" cx="399.23" cy="356.29" r="11.4"/><path class="cls-2" d="M399.23,369.86a13.57,13.57,0,1,1,13.57-13.57A13.59,13.59,0,0,1,399.23,369.86Zm0-22.8a9.23,9.23,0,1,0,9.23,9.23A9.24,9.24,0,0,0,399.23,347.06Z"/><path class="cls-4" d="M242.1,268A11.12,11.12,0,0,1,231,279.14H208.72A11.12,11.12,0,0,1,197.6,268L192.26,111a13.8,13.8,0,0,1,13.8-13.8h27.59a13.8,13.8,0,0,1,13.8,13.8Z"/><path class="cls-2" d="M231,281.31H208.72A13.31,13.31,0,0,1,195.43,268l-5.34-157a16,16,0,0,1,16-16h27.59a16,16,0,0,1,16,16l-5.34,157.13A13.3,13.3,0,0,1,231,281.31Zm-24.92-182A11.64,11.64,0,0,0,194.43,111l5.34,157a9,9,0,0,0,9,9H231a9,9,0,0,0,9-9l5.34-157.13a11.63,11.63,0,0,0-11.63-11.55Z"/><path class="cls-4" d="M245.36,327a25.51,25.51,0,1,1-25.51-25.52A25.51,25.51,0,0,1,245.36,327Z"/><path class="cls-2" d="M219.85,354.66A27.68,27.68,0,1,1,247.53,327,27.71,27.71,0,0,1,219.85,354.66Zm0-51A23.34,23.34,0,1,0,243.19,327,23.37,23.37,0,0,0,219.85,303.63Z"/></g></g></svg>