<?xml version="1.0" encoding="utf-8"?>
<!-- Generator: Adobe Illustrator 21.0.0, SVG Export Plug-In . SVG Version: 6.00 Build 0)  -->
<svg version="1.1" id="Слой_1" xmlns="http://www.w3.org/2000/svg" xmlns:xlink="http://www.w3.org/1999/xlink" x="0px" y="0px"
	 viewBox="0 0 195.5 147.3" style="enable-background:new 0 0 195.5 147.3;" xml:space="preserve">
<style type="text/css">
	.st0{stroke:#000000;stroke-miterlimit:10;}
	.st1{fill:none;stroke:#F2F2F2;stroke-linecap:round;stroke-linejoin:round;}
	.st2{fill:none;stroke:#F2F2F2;stroke-width:2;stroke-linecap:round;stroke-linejoin:round;}
	.st3{fill:#F2F2F2;stroke:#F2F2F2;stroke-miterlimit:10;}
	.st4{fill:#F2F2F2;}
	.st5{font-family:'OpenSans-Bold';}
	.st6{font-size:32px;}
	.st7{font-family:'ArialMT';}
	.st8{font-size:10px;}
</style>
<title>logo-white_1</title>
<rect class="st0" width="195.5" height="147.3"/>
<g id="Слой_2">
	<g id="Слой_1-2">
		<path class="st1" d="M28.3,35.1L91.8,10c4.7-1.9,10-1.9,14.7,0l63.6,25.1c7.6,3,12.6,10.4,12.6,18.6v38.8c0,8.2-5,15.6-12.6,18.6
			l-63.6,25.1c-4.7,1.9-10,1.9-14.7,0l-63.6-25.1c-7.6-3-12.6-10.4-12.7-18.6V53.7C15.6,45.5,20.6,38.1,28.3,35.1z"/>
		<path class="st2" d="M30.5,37.1l61.8-23.9c4.4-1.7,9.3-1.7,13.7,0l61.8,23.9c7.3,2.8,12.1,9.9,12.1,17.7v36.6
			c0,7.8-4.8,14.9-12.1,17.7L106,133c-4.4,1.7-9.3,1.7-13.7,0l-61.8-23.9c-7.3-2.8-12.1-9.9-12.1-17.7V54.9
			C18.4,47,23.2,39.9,30.5,37.1z"/>
		<path class="st3" d="M121.1,54.5c-0.1-0.1-0.3-0.1-0.5,0c-0.1-0.5-0.3-1-0.7-1.4c-1.5-1.8-5-1.8-7.5-1.8c-0.7,0-1.3,0-1.8,0
			c-2.1-0.2-5.1-2.2-6-2.8V48c0-0.2-0.1-0.4-0.2-0.5c-5-4.6-9.1-5.9-9.3-5.9c-0.2,0-0.4,0-0.6,0.2c-1,1.2-2,2.3-3.2,3.3
			c-2.2,1.9-5.2,2.5-8,1.6c-1.4-0.4-2.8-1.1-4-1.9c-0.2-0.1-0.4-0.1-0.5,0c-0.2,0.1-0.6,0.4-1.7,5.1c-0.3,1.3-0.4,2.7-0.3,4
			c0,0.1,0,0.2,0,0.3c-0.1,0.4,0.1,0.7,0.3,1c0.1,0.3,0.2,0.5,0.3,0.7c-0.2,0.1-0.2,0.3-0.2,0.5v4.2c0,0.3,0.2,0.6,0.5,0.6h11.5
			c0.3,0,0.5-0.3,0.5-0.6v-0.9c3,0.1,5.9,0.3,8.9,0.8c4.4,0.6,8.5,0.8,8.7,0.8c6,0,12.7-2.6,13.8-3.7c0.1-0.1,0.2-0.3,0.2-0.5v-2
			C121.4,54.8,121.3,54.6,121.1,54.5z"/>
		<text transform="matrix(1 0 0 1 25.6626 93.1116)" class="st4 st5 st6">ЮНИН А.</text>
		<text transform="matrix(1 0 0 1 69.8025 114.2316)" class="st4 st7 st8">С 1991 </text>
		<text transform="matrix(1 0 0 1 104.8226 114.2316)" class="st4 st7 st8">Г</text>
		<text transform="matrix(1 0 0 1 109.6825 114.2316)" class="st4 st7 st8">О</text>
		<text transform="matrix(1 0 0 1 117.2425 114.2316)" class="st4 st7 st8">ДА</text>
		<path class="st4" d="M36.7,49.1c0.7,0.9,1.1,2.1,0.9,3.3c-0.2,1.2-0.9,2.2-1.9,2.9c-0.9,0.8-2.1,1.2-3.3,1.2
			c-1.2-0.1-2.3-0.8-3-1.7c-0.8-0.9-1.3-2.1-1.1-3.3c0.2-1.3,1-2.4,2.1-3.1c1-0.8,2.2-1.3,3.5-1.2C35,47.4,36,48.1,36.7,49.1z
			 M30.3,54c0.6,0.8,1.4,1.3,2.4,1.5c0.9,0.1,1.8-0.2,2.5-0.8c0.8-0.5,1.3-1.3,1.4-2.2c0-1-0.3-1.9-0.9-2.6
			c-0.5-0.8-1.3-1.4-2.2-1.6c-0.9-0.1-1.9,0.2-2.6,0.9c-0.8,0.5-1.3,1.4-1.5,2.3C29.3,52.4,29.6,53.4,30.3,54L30.3,54z"/>
		<path class="st4" d="M44.8,45.9c0.4,0.6,0.5,1.4,0.2,2.1c-0.4,0.8-1,1.4-1.8,1.9c-0.9,0.6-1.4,0.9-2.3,1.5l-4.8-7.1
			c2-1.4,3-2,5.1-3.3l0.5,0.8c-1.7,1-2.5,1.5-4.1,2.6l1.6,2.3l1.3-0.8c0.6-0.4,1.2-0.7,1.9-0.9c0.5-0.1,1-0.1,1.4,0
			C44.2,45.2,44.6,45.5,44.8,45.9z M41.4,50.1l1.3-0.9c0.6-0.3,1-0.8,1.3-1.3c0.2-0.5,0.1-1-0.2-1.4c-0.2-0.4-0.6-0.7-1.1-0.7
			c-0.7,0.1-1.4,0.4-1.9,0.8l-1.2,0.8L41.4,50.1z"/>
		<path class="st4" d="M48.4,46.9c-0.4,0.2-0.8,0.4-1.2,0.5l-0.5-0.8c0.4-0.1,0.8-0.2,1.2-0.4s0.7-0.5,0.9-0.8
			C49,45,49.1,44.5,49,44c-2.5-1.5-3.8-2.3-6.5-3.7l1.1-0.7c2,1.1,3,1.7,4.9,2.8c0.2,0.1,0.3,0.2,0.5,0.4l0,0c0-0.2-0.1-0.4-0.1-0.7
			c-0.1-2.2-0.1-3.2,0-5.4l1.1-0.6c-0.1,2.8-0.1,4.2,0,6.9c0,0.6,0,1.3-0.1,1.9c-0.1,0.4-0.3,0.8-0.5,1.1
			C49.2,46.4,48.8,46.7,48.4,46.9z"/>
		<path class="st4" d="M51.4,35.5c1-0.5,1.6-0.7,2.6-1.2c0.9-0.5,1.9-0.7,2.9-0.7c0.7,0.1,1.2,0.5,1.4,1.2c0.2,0.4,0.2,0.9,0,1.3
			c-0.2,0.5-0.6,0.9-1.1,1.1l0,0c1.5-0.4,2.4,0,2.8,1.1c0.3,0.6,0.2,1.4-0.1,2c-0.5,0.7-1.1,1.2-1.9,1.5c-1.2,0.5-1.8,0.8-3,1.3
			L51.4,35.5z M54,38.4l1.7-0.8c0.6-0.2,1.1-0.5,1.5-1c0.2-0.4,0.3-0.8,0.1-1.2c-0.1-0.4-0.5-0.7-1-0.7c-0.7,0-1.3,0.2-1.9,0.5
			l-1.6,0.7L54,38.4z M54.3,39.1l1.3,2.9l1.8-0.8c0.6-0.2,1.1-0.5,1.4-1c0.3-0.4,0.3-0.9,0-1.4c-0.1-0.4-0.5-0.8-1-0.8
			c-0.6,0-1.3,0.1-1.8,0.4L54.3,39.1z"/>
		<path class="st4" d="M69.5,37.7l-1,0.3l-1.2-3.9c-1.9,0.6-2.9,0.9-4.8,1.6l1.4,3.8l-1,0.4l-3-8l1.1-0.4l1.2,3.4
			c1.9-0.7,2.9-1,4.8-1.6l-1-3.5l1.1-0.3L69.5,37.7z"/>
		<path class="st4" d="M77.6,35.7c-0.7-1-1-1.5-1.7-2.4c-1.5,0.3-2.2,0.5-3.7,0.9C72,35.4,72,36,71.8,37.1l-1,0.3
			c0.4-3.7,0.7-5.6,1.4-9.3l0.9-0.2c2.3,3,3.4,4.5,5.5,7.6L77.6,35.7z M75.3,32.5c-0.7-0.9-1-1.4-1.7-2.3c-0.2-0.3-0.5-0.7-0.7-1.1
			c0,0.4-0.1,0.9-0.1,1.3c-0.2,1.1-0.3,1.7-0.5,2.9C73.5,32.9,74.1,32.7,75.3,32.5L75.3,32.5z"/>
		<path class="st4" d="M82,31.2c-0.8,1.6-1.1,2.4-1.8,3.9L79,35.4c0.7-1.7,1.1-2.5,1.9-4.2c-0.6,0-1.2-0.2-1.7-0.6
			c-0.4-0.4-0.7-0.9-0.8-1.4c-0.2-0.7,0.1-1.4,0.6-1.9c0.8-0.6,1.7-1,2.6-1.1c1.1-0.2,1.6-0.2,2.7-0.4l1.1,8.5l-1.1,0.1l-0.5-3.5
			L82,31.2z M83.3,26.8L81.8,27c-0.6,0.1-1.3,0.3-1.8,0.7c-0.4,0.3-0.5,0.8-0.4,1.3c0.2,1.1,1.1,1.5,2.8,1.3l1.4-0.2L83.3,26.8z"/>
		<path class="st4" d="M95.4,33.5c-1.4-3-2.1-4.5-3.6-7.4h-0.1c0.1,0.7,0.2,1.4,0.2,2.1l0.4,5.4l-1,0.1l-0.6-8.6l1.7-0.1
			c1.4,2.8,2.1,4.1,3.4,6.9h0.1c1.1-2.9,1.7-4.3,2.9-7.1h1.7l-0.1,8.6h-1.1c0-2.2,0-3.3,0-5.5c0-0.6,0-1.3,0.1-2.1h-0.1
			c-1.3,3-2,4.6-3.1,7.6L95.4,33.5z"/>
		<path class="st4" d="M108.6,33.8c-0.3-1.1-0.5-1.7-0.9-2.8c-1.5-0.1-2.3-0.2-3.8-0.2c-0.5,1.1-0.8,1.6-1.2,2.7h-1.1
			c1.5-3.4,2.3-5.1,4.1-8.4l1,0.1c1.3,3.5,1.9,5.3,3,8.9L108.6,33.8z M107.4,30.1c-0.4-1.1-0.5-1.6-0.9-2.7
			c-0.1-0.4-0.3-0.8-0.4-1.3c-0.1,0.4-0.3,0.8-0.5,1.2c-0.5,1-0.8,1.5-1.3,2.6C105.6,30,106.2,30,107.4,30.1z"/>
		<path class="st4" d="M116.1,26.9c-0.9-0.2-1.9,0-2.7,0.6c-0.7,0.6-1.2,1.5-1.3,2.4c-0.2,0.9,0,1.9,0.5,2.7
			c0.6,0.7,1.4,1.2,2.3,1.2c0.7,0.1,1.5,0.1,2.2,0l-0.2,0.9c-0.8,0.1-1.6,0.1-2.4,0c-1.2-0.1-2.3-0.7-3-1.6c-0.7-1-1-2.2-0.8-3.4
			c0.1-0.8,0.4-1.6,0.8-2.2c0.5-0.6,1.1-1.1,1.8-1.3c0.8-0.3,1.7-0.3,2.6-0.2c0.9,0.1,1.8,0.4,2.6,0.9l-0.6,0.8
			C117.5,27.3,116.8,27,116.1,26.9z"/>
		<path class="st4" d="M121.8,35.9l-1-0.2l1.6-7.5c-1.2-0.3-1.8-0.4-3.1-0.6l0.2-0.9c2.9,0.5,4.4,0.9,7.3,1.6l-0.2,0.9
			c-1.2-0.3-1.8-0.5-3-0.7L121.8,35.9z"/>
		<path class="st4" d="M130.9,38.4c-2-0.6-3-0.9-4.9-1.5l2.2-8.3c2.2,0.6,3.2,0.9,5.4,1.6l-0.3,0.8c-1.7-0.5-2.5-0.8-4.2-1.3
			l-0.7,2.7c1.5,0.4,2.3,0.7,3.8,1.2l-0.3,0.8c-1.5-0.5-2.3-0.7-3.8-1.1l-0.8,3c1.6,0.4,2.4,0.7,3.9,1.2L130.9,38.4z"/>
		<path class="st4" d="M140.7,35.5c-0.3,0.8-0.9,1.3-1.7,1.5c-1,0.2-2,0-2.9-0.4l-1.1-0.4l-1.1,3.2l-1-0.4l2.8-8.1
			c1,0.3,1.5,0.5,2.4,0.9C140.4,32.7,141.3,33.9,140.7,35.5z M135.3,35.4l1,0.3c0.7,0.3,1.4,0.4,2.2,0.4c0.5-0.1,1-0.5,1.1-1
			c0.2-0.5,0.2-1-0.1-1.4c-0.5-0.5-1.1-0.9-1.7-1.1l-1.3-0.5L135.3,35.4z"/>
		<path class="st4" d="M147.1,36.5c-1.5-0.9-3.5-0.4-4.4,1.1c-0.1,0.2-0.2,0.4-0.3,0.6c-0.4,0.8-0.5,1.8-0.2,2.7s1,1.6,1.9,1.9
			c0.7,0.3,1.4,0.6,2.2,0.7l-0.4,0.8c-0.8-0.1-1.6-0.4-2.3-0.8c-1.1-0.4-2-1.3-2.5-2.4c-0.4-1.1-0.3-2.4,0.2-3.5
			c0.3-0.8,0.8-1.4,1.4-1.9c0.6-0.5,1.4-0.7,2.1-0.7c0.9,0,1.8,0.2,2.6,0.6c0.9,0.4,1.6,1,2.3,1.7l-0.8,0.5
			C148.5,37.3,147.8,36.8,147.1,36.5z"/>
		<path class="st4" d="M153.5,48.8l-1.1-0.7c-0.6-2.4-0.9-3.6-1.7-6l-2.1,3.8l-1-0.5l4-7.6l1,0.6l-2,3.6c2.4-0.6,3.6-0.9,6-1.3
			l1.2,0.7c-2.4,0.5-3.6,0.7-5.9,1.3C152.6,45.2,152.9,46.4,153.5,48.8z"/>
		<path class="st4" d="M159.6,52.9c0.2-1.2,0.4-1.8,0.6-2.9c-1.3-0.9-1.9-1.3-3.2-2.2c-1,0.7-1.5,1-2.5,1.7l-0.9-0.6
			c3.1-2.1,4.7-3.2,8-5.1l0.8,0.6c-0.6,3.8-1,5.6-1.8,9.3L159.6,52.9z M160.4,49c0.2-1.1,0.3-1.7,0.6-2.8c0.1-0.4,0.2-0.8,0.3-1.3
			c-0.3,0.3-0.7,0.5-1.1,0.8c-1,0.6-1.5,0.9-2.4,1.6C158.8,47.9,159.3,48.3,160.4,49z"/>
		<path class="st4" d="M166.1,53.4c-1.7,0.5-2.6,0.7-4.2,1.2l-1.1-0.8c1.8-0.6,2.6-0.8,4.5-1.3c-0.4-0.5-0.7-1.1-0.7-1.7
			c0-0.6,0.2-1.1,0.5-1.5c0.4-0.6,1.1-0.9,1.8-0.8c1,0.2,1.9,0.6,2.7,1.3c0.9,0.7,1.3,1.1,2.2,1.8l-5.6,6.5l-0.9-0.7l2.3-2.7
			L166.1,53.4z M170.3,51.5l-1.2-1c-0.5-0.5-1.1-0.8-1.8-0.9c-0.5-0.1-1,0.1-1.3,0.5c-0.7,0.9-0.4,1.9,1,3l1.2,1L170.3,51.5z"/>
	</g>
</g>
</svg>
