<?xml version="1.0" encoding="utf-8"?>
<!-- Generator: Adobe Illustrator 21.0.0, SVG Export Plug-In . SVG Version: 6.00 Build 0)  -->
<svg version="1.1" id="Слой_1" xmlns="http://www.w3.org/2000/svg" xmlns:xlink="http://www.w3.org/1999/xlink" x="0px" y="0px"
	 viewBox="0 0 168.1 130" style="enable-background:new 0 0 168.1 130;" xml:space="preserve">
<style type="text/css">
	.st0{fill:none;stroke:#FFFFFF;stroke-linecap:round;stroke-linejoin:round;}
	.st1{fill:none;stroke:#FFFFFF;stroke-width:2;stroke-linecap:round;stroke-linejoin:round;}
	.st2{fill:#FFFFFF;stroke:#FFFFFF;stroke-miterlimit:10;}
	.st3{fill:#FFFFFF;}
	.st4{font-family:'OpenSans-Bold';}
	.st5{font-size:32px;}
	.st6{font-family:'ArialMT';}
	.st7{font-size:10px;}
</style>
<title>logo-white_1</title>
<g id="Слой_2">
	<g id="Слой_1-2">
		<path class="st0" d="M13.1,27L76.7,1.9c4.7-1.9,10-1.9,14.7,0L155,27c7.6,3,12.6,10.4,12.6,18.6v38.8c0,8.2-5,15.6-12.6,18.6
			l-63.6,25.1c-4.7,1.9-10,1.9-14.7,0L13.1,103C5.5,100,0.5,92.6,0.5,84.4V45.6C0.5,37.4,5.5,30,13.1,27z"/>
		<path class="st1" d="M15.4,29L77.2,5.1c4.4-1.7,9.3-1.7,13.7,0L152.7,29c7.3,2.8,12.1,9.9,12.1,17.7v36.6
			c0,7.8-4.8,14.9-12.1,17.7l-61.8,23.9c-4.4,1.7-9.3,1.7-13.7,0L15.4,101C8.1,98.2,3.2,91.1,3.2,83.3V46.7
			C3.2,38.9,8.1,31.8,15.4,29z"/>
		<path class="st2" d="M106,46.4c-0.1-0.1-0.3-0.1-0.5,0c-0.1-0.5-0.3-1-0.7-1.4c-1.5-1.8-5-1.8-7.5-1.8c-0.7,0-1.3,0-1.8,0
			c-2.1-0.2-5.1-2.2-6-2.8v-0.6c0-0.2-0.1-0.4-0.2-0.5c-5-4.6-9.1-5.9-9.3-5.9c-0.2,0-0.4,0-0.6,0.2c-1,1.2-2,2.3-3.2,3.3
			c-2.2,1.9-5.2,2.5-8,1.6c-1.4-0.4-2.8-1.1-4-1.9c-0.2-0.1-0.4-0.1-0.5,0c-0.2,0.1-0.6,0.4-1.7,5.1c-0.3,1.3-0.4,2.7-0.3,4
			c0,0.1,0,0.2,0,0.3c-0.1,0.4,0.1,0.7,0.3,1c0.1,0.3,0.2,0.5,0.3,0.7c-0.2,0.1-0.2,0.3-0.2,0.5v4.2c0,0.3,0.2,0.6,0.5,0.6h11.5
			c0.3,0,0.5-0.3,0.5-0.6v-0.9c3,0.1,5.9,0.3,8.9,0.8c4.4,0.6,8.5,0.8,8.7,0.8c6,0,12.7-2.6,13.8-3.7c0.1-0.1,0.2-0.3,0.2-0.5v-2
			C106.3,46.7,106.2,46.5,106,46.4z"/>
		<text transform="matrix(1 0 0 1 10.53 85)" class="st3 st4 st5">ЮНИН А.</text>
		<text transform="matrix(1 0 0 1 54.67 106.12)" class="st3 st6 st7">С 1991 </text>
		<text transform="matrix(1 0 0 1 89.69 106.12)" class="st3 st6 st7">Г</text>
		<text transform="matrix(1 0 0 1 94.55 106.12)" class="st3 st6 st7">О</text>
		<text transform="matrix(1 0 0 1 102.11 106.12)" class="st3 st6 st7">ДА</text>
		<path class="st3" d="M21.5,41c0.7,0.9,1.1,2.1,0.9,3.3c-0.2,1.2-0.9,2.2-1.9,2.9c-0.9,0.8-2.1,1.2-3.3,1.2c-1.2-0.1-2.3-0.8-3-1.7
			c-0.8-0.9-1.3-2.1-1.1-3.3c0.2-1.3,1-2.4,2.1-3.1c1-0.8,2.2-1.3,3.5-1.2C19.8,39.3,20.9,40,21.5,41z M15.2,45.9
			c0.6,0.8,1.4,1.3,2.4,1.5c0.9,0.1,1.8-0.2,2.5-0.8c0.8-0.5,1.3-1.3,1.4-2.2c0-1-0.3-1.9-0.9-2.6c-0.5-0.8-1.3-1.4-2.2-1.6
			c-0.9-0.1-1.9,0.2-2.6,0.9c-0.8,0.5-1.3,1.4-1.5,2.3C14.2,44.3,14.5,45.2,15.2,45.9L15.2,45.9z"/>
		<path class="st3" d="M29.7,37.8c0.4,0.6,0.5,1.4,0.2,2.1c-0.4,0.8-1,1.4-1.8,1.9c-0.9,0.6-1.4,0.9-2.3,1.5l-4.8-7.1
			c2-1.4,3-2,5.1-3.3l0.5,0.8c-1.6,1-2.5,1.5-4.1,2.6l1.6,2.3l1.3-0.8c0.6-0.4,1.2-0.7,1.9-0.9c0.5-0.1,1-0.1,1.4,0
			C29.1,37,29.5,37.4,29.7,37.8z M26.2,42l1.3-0.9c0.6-0.3,1-0.8,1.3-1.3c0.2-0.5,0.1-1-0.2-1.4c-0.2-0.4-0.6-0.7-1.1-0.7
			c-0.7,0.1-1.4,0.4-1.9,0.8l-1.2,0.8L26.2,42z"/>
		<path class="st3" d="M33.2,38.8c-0.4,0.2-0.8,0.4-1.2,0.5l-0.5-0.8c0.4-0.1,0.8-0.2,1.2-0.4c0.4-0.2,0.7-0.5,0.9-0.8
			c0.2-0.4,0.3-0.9,0.2-1.4c-2.5-1.5-3.8-2.3-6.5-3.7l1.1-0.7c2,1.1,3,1.7,4.9,2.8c0.2,0.1,0.3,0.2,0.5,0.4l0,0
			c0-0.2-0.1-0.4-0.1-0.7c-0.1-2.1-0.1-3.2,0-5.4L35,28c-0.1,2.8-0.1,4.2,0,6.9c0,0.6,0,1.3-0.1,1.9c-0.1,0.4-0.3,0.8-0.5,1.1
			C34,38.2,33.7,38.5,33.2,38.8z"/>
		<path class="st3" d="M36.3,27.4c1-0.5,1.6-0.7,2.6-1.2c0.9-0.5,1.9-0.7,2.9-0.7c0.7,0.1,1.2,0.5,1.4,1.2c0.2,0.4,0.2,0.9,0,1.4
			c-0.2,0.5-0.6,0.9-1.1,1.1v0c1.5-0.4,2.4,0,2.8,1.1c0.3,0.6,0.2,1.4-0.1,2c-0.5,0.7-1.1,1.2-1.9,1.5c-1.2,0.5-1.8,0.8-3,1.3
			L36.3,27.4z M38.9,30.3l1.7-0.8c0.6-0.2,1.1-0.5,1.5-1c0.2-0.4,0.3-0.8,0.1-1.2c-0.1-0.4-0.5-0.7-1-0.7c-0.7,0-1.3,0.2-1.9,0.5
			l-1.6,0.7L38.9,30.3z M39.2,31l1.3,2.9l1.8-0.8c0.6-0.2,1.1-0.5,1.4-1c0.3-0.4,0.3-0.9,0-1.4c-0.1-0.4-0.5-0.8-1-0.9
			c-0.6,0-1.3,0.1-1.8,0.4L39.2,31z"/>
		<path class="st3" d="M54.4,29.6l-1,0.3l-1.2-3.9c-1.9,0.6-2.9,0.9-4.8,1.6l1.4,3.8l-1,0.4l-3-8l1.1-0.4l1.2,3.4
			c1.9-0.7,2.9-1,4.8-1.6l-1-3.5l1.1-0.3L54.4,29.6z"/>
		<path class="st3" d="M62.4,27.6c-0.7-1-1-1.5-1.7-2.4c-1.5,0.3-2.2,0.5-3.7,0.9c-0.2,1.2-0.2,1.8-0.4,2.9l-1,0.3
			c0.4-3.7,0.7-5.6,1.4-9.3l1-0.2c2.3,3,3.4,4.5,5.5,7.6L62.4,27.6z M60.2,24.3c-0.7-0.9-1-1.4-1.7-2.3c-0.2-0.3-0.5-0.7-0.7-1.1
			c0,0.4-0.1,0.9-0.1,1.3c-0.2,1.1-0.3,1.7-0.5,2.9C58.4,24.8,59,24.6,60.2,24.3L60.2,24.3z"/>
		<path class="st3" d="M66.9,23.1c-0.8,1.6-1.1,2.4-1.8,3.9l-1.2,0.2c0.7-1.7,1.1-2.5,1.9-4.2c-0.6,0-1.2-0.2-1.7-0.6
			c-0.4-0.4-0.7-0.9-0.8-1.4c-0.2-0.7,0.1-1.4,0.6-1.9c0.8-0.6,1.7-1,2.6-1.1c1.1-0.2,1.6-0.2,2.7-0.4l1.1,8.5l-1.1,0.1l-0.5-3.5
			L66.9,23.1z M68.2,18.7l-1.5,0.2c-0.6,0.1-1.3,0.3-1.8,0.7c-0.4,0.3-0.5,0.8-0.4,1.3c0.2,1.1,1.1,1.5,2.8,1.3l1.4-0.2L68.2,18.7z"
			/>
		<path class="st3" d="M80.2,25.4c-1.4-3-2.1-4.5-3.6-7.4h-0.1c0.1,0.7,0.2,1.4,0.2,2.1l0.4,5.4l-1,0.1L75.5,17l1.7-0.1
			c1.4,2.8,2.1,4.1,3.4,6.9h0.1c1.1-2.9,1.7-4.3,2.9-7.1h1.7l-0.1,8.6h-1.1c0-2.2,0-3.3,0-5.5c0-0.6,0-1.3,0.1-2.1h-0.1
			c-1.3,3-2,4.6-3.1,7.6L80.2,25.4z"/>
		<path class="st3" d="M93.5,25.7c-0.3-1.1-0.5-1.7-0.9-2.8c-1.5-0.1-2.3-0.2-3.8-0.2c-0.5,1.1-0.8,1.6-1.2,2.7h-1.1
			c1.5-3.4,2.3-5.1,4.1-8.4l1,0.1c1.3,3.5,1.9,5.3,3,8.9L93.5,25.7z M92.3,22c-0.4-1.1-0.5-1.6-0.9-2.7c-0.1-0.4-0.3-0.8-0.4-1.3
			c-0.1,0.4-0.3,0.8-0.5,1.2c-0.5,1-0.8,1.5-1.3,2.6C90.5,21.8,91.1,21.9,92.3,22z"/>
		<path class="st3" d="M100.9,18.8c-0.9-0.2-1.9,0-2.7,0.6c-0.7,0.6-1.2,1.5-1.3,2.4c-0.2,0.9,0,1.9,0.5,2.7
			c0.6,0.7,1.4,1.2,2.3,1.2c0.7,0.1,1.5,0.1,2.2,0l-0.2,0.9c-0.8,0.1-1.6,0.1-2.4,0c-1.2-0.1-2.3-0.7-3-1.6c-0.7-1-1-2.2-0.8-3.4
			c0.1-0.8,0.4-1.6,0.8-2.2c0.5-0.6,1.1-1.1,1.8-1.3c0.8-0.3,1.7-0.3,2.6-0.2c0.9,0.1,1.8,0.4,2.6,0.9l-0.6,0.8
			C102.4,19.2,101.7,18.9,100.9,18.8z"/>
		<path class="st3" d="M106.6,27.8l-1-0.2l1.6-7.5c-1.2-0.3-1.8-0.4-3.1-0.6l0.2-0.9c2.9,0.5,4.4,0.9,7.3,1.6l-0.2,0.9
			c-1.2-0.3-1.8-0.5-3-0.7L106.6,27.8z"/>
		<path class="st3" d="M115.8,30.3c-2-0.6-3-0.9-4.9-1.5l2.2-8.3c2.2,0.6,3.2,0.9,5.3,1.6l-0.3,0.8c-1.7-0.5-2.5-0.8-4.2-1.3
			l-0.7,2.7c1.5,0.4,2.3,0.7,3.8,1.1l-0.3,0.8c-1.5-0.5-2.3-0.7-3.8-1.1l-0.8,3c1.6,0.4,2.4,0.7,3.9,1.2L115.8,30.3z"/>
		<path class="st3" d="M125.5,27.4c-0.3,0.8-0.9,1.3-1.7,1.5c-1,0.2-2,0-2.9-0.4l-1.1-0.4l-1.1,3.2l-1-0.4l2.8-8.1
			c1,0.3,1.5,0.5,2.4,0.9C125.3,24.6,126.2,25.8,125.5,27.4z M120.1,27.3l1,0.3c0.7,0.3,1.4,0.4,2.2,0.4c0.5-0.1,1-0.5,1.1-1
			c0.2-0.5,0.2-1-0.1-1.4c-0.5-0.5-1.1-0.9-1.7-1.1l-1.3-0.5L120.1,27.3z"/>
		<path class="st3" d="M132,28.4c-1.5-0.9-3.5-0.4-4.4,1.1c-0.1,0.2-0.2,0.4-0.3,0.6c-0.4,0.8-0.5,1.8-0.2,2.7
			c0.3,0.9,1,1.6,1.9,1.9c0.7,0.3,1.4,0.6,2.2,0.7l-0.4,0.8c-0.8-0.1-1.6-0.4-2.3-0.8c-1.1-0.4-2-1.3-2.5-2.4
			c-0.4-1.1-0.3-2.4,0.2-3.5c0.3-0.8,0.8-1.4,1.4-1.9c0.6-0.5,1.4-0.7,2.2-0.7c0.9,0,1.8,0.2,2.6,0.6c0.9,0.4,1.6,1,2.3,1.7
			l-0.8,0.5C133.3,29.2,132.7,28.7,132,28.4z"/>
		<path class="st3" d="M138.4,40.7l-1.1-0.7c-0.6-2.4-0.9-3.6-1.7-6l-2.1,3.8l-1-0.5l4-7.6l1,0.6l-2,3.6c2.4-0.6,3.6-0.9,6-1.3
			l1.2,0.7c-2.4,0.5-3.6,0.7-5.9,1.3C137.5,37.1,137.8,38.3,138.4,40.7z"/>
		<path class="st3" d="M144.4,44.8c0.2-1.2,0.4-1.8,0.6-2.9c-1.3-0.9-1.9-1.3-3.2-2.2c-1,0.7-1.5,1-2.5,1.7l-0.9-0.6
			c3.1-2.1,4.7-3.2,8-5.1l0.8,0.6c-0.6,3.8-1,5.6-1.8,9.3L144.4,44.8z M145.2,40.9c0.2-1.1,0.3-1.7,0.6-2.8c0.1-0.4,0.2-0.8,0.3-1.3
			c-0.3,0.3-0.7,0.5-1.1,0.8c-1,0.6-1.5,0.9-2.4,1.6C143.7,39.8,144.2,40.2,145.2,40.9z"/>
		<path class="st3" d="M150.9,45.2c-1.7,0.5-2.6,0.7-4.2,1.2l-1.1-0.8c1.8-0.6,2.6-0.8,4.5-1.3c-0.4-0.5-0.7-1.1-0.7-1.7
			c0-0.6,0.2-1.1,0.5-1.5c0.4-0.6,1.1-0.9,1.8-0.8c1,0.2,1.9,0.6,2.7,1.3c0.9,0.7,1.3,1.1,2.2,1.8l-5.6,6.5l-0.9-0.7l2.3-2.7
			L150.9,45.2z M155.1,43.4l-1.2-1c-0.5-0.5-1.1-0.8-1.8-0.9c-0.5-0.1-1,0.1-1.3,0.5c-0.7,0.9-0.4,1.9,1,3l1.2,1L155.1,43.4z"/>
	</g>
</g>
</svg>
