<svg xmlns="http://www.w3.org/2000/svg" viewBox="0 0 168.1 130.02"><defs><style>.cls-1,.cls-2{fill:none;stroke-linecap:round;stroke-linejoin:round;}.cls-1,.cls-2,.cls-3{stroke:#f2f2f2;}.cls-2{stroke-width:2px;}.cls-3,.cls-4,.cls-5,.cls-8{fill:#f2f2f2;}.cls-3{stroke-miterlimit:10;}.cls-4{font-size:32px;font-family:OpenSans-Bold, Open Sans;font-weight:700;}.cls-5{font-size:10px;font-family:ArialMT, Arial;}.cls-6{letter-spacing:-0.06em;}.cls-7{letter-spacing:-0.02em;}</style></defs><title>logo-white_1</title><g id="Слой_2" data-name="Слой 2"><g id="Слой_1-2" data-name="Слой 1"><path class="cls-1" d="M13.15,27,76.7,1.9a20,20,0,0,1,14.7,0L155,27a20,20,0,0,1,12.65,18.6V84.42A20,20,0,0,1,155,103L91.4,128.13a20,20,0,0,1-14.7,0L13.15,103A20,20,0,0,1,.5,84.42V45.61A20,20,0,0,1,13.15,27Z"/><path class="cls-2" d="M15.38,29,77.19,5.09a19,19,0,0,1,13.72,0L152.72,29a19,19,0,0,1,12.14,17.72V83.28A19,19,0,0,1,152.72,101L90.91,124.93a19,19,0,0,1-13.72,0L15.38,101A19,19,0,0,1,3.24,83.28V46.74A19,19,0,0,1,15.38,29Z"/><path class="cls-3" d="M106,46.37a.45.45,0,0,0-.48,0,3,3,0,0,0-.66-1.39c-1.49-1.78-5-1.76-7.51-1.75-.7,0-1.31,0-1.77,0-2.07-.16-5.13-2.17-6-2.79l0-.57a.64.64,0,0,0-.19-.51c-5-4.57-9.09-5.87-9.26-5.92a.51.51,0,0,0-.55.23A28.2,28.2,0,0,1,76.38,37a8.17,8.17,0,0,1-8,1.57,13.36,13.36,0,0,1-4-1.92.46.46,0,0,0-.54,0c-.16.11-.59.39-1.69,5.07a11.74,11.74,0,0,0-.3,4c0,.11,0,.22,0,.33a1.22,1.22,0,0,0,.3,1,6.21,6.21,0,0,0,.27.74.65.65,0,0,0-.25.51v4.15a.56.56,0,0,0,.51.59H74.2a.56.56,0,0,0,.51-.59v-.9a66.47,66.47,0,0,1,8.87.75c4.36.61,8.46.75,8.66.75,6,0,12.65-2.59,13.84-3.69a.63.63,0,0,0,.19-.46v-2A.62.62,0,0,0,106,46.37Z"/><text class="cls-4" transform="translate(10.53 85)">ЮНИН А.</text><text class="cls-5" transform="translate(54.67 106.12)">С 1991 <tspan class="cls-6" x="35.02" y="0">Г</tspan><tspan class="cls-7" x="39.88" y="0">О</tspan><tspan x="47.44" y="0">ДА</tspan></text><path class="cls-8" d="M21.53,41a4.44,4.44,0,0,1,.93,3.32,4.59,4.59,0,0,1-1.89,2.91,4.72,4.72,0,0,1-3.31,1.19,4.44,4.44,0,0,1-3-1.72,4.12,4.12,0,0,1-1.15-3.28,4.91,4.91,0,0,1,2.06-3.14,4.72,4.72,0,0,1,3.49-1.18A4.16,4.16,0,0,1,21.53,41Zm-6.34,4.9a3.74,3.74,0,0,0,2.35,1.48A3.32,3.32,0,0,0,20,46.58a3.26,3.26,0,0,0,1.4-2.2,3.81,3.81,0,0,0-.9-2.62,3.58,3.58,0,0,0-2.25-1.6,3.35,3.35,0,0,0-2.59.86,3.45,3.45,0,0,0-1.48,2.34A3.52,3.52,0,0,0,15.19,45.93Z"/><path class="cls-8" d="M29.68,37.83a2.19,2.19,0,0,1,.25,2.06,4.53,4.53,0,0,1-1.83,1.87c-.94.6-1.4.91-2.32,1.55l-4.84-7.07c2-1.38,3-2,5.1-3.3l.46.76c-1.65,1-2.46,1.52-4.08,2.6L24,38.6l1.29-.85a6.77,6.77,0,0,1,1.94-.92,2.33,2.33,0,0,1,1.43,0A2.21,2.21,0,0,1,29.68,37.83ZM26.22,42l1.31-.86a3.45,3.45,0,0,0,1.33-1.3,1.41,1.41,0,0,0-.17-1.37,1.26,1.26,0,0,0-1.12-.7,4.18,4.18,0,0,0-1.94.82l-1.17.77Z"/><path class="cls-8" d="M33.25,38.77a4.26,4.26,0,0,1-1.18.48l-.49-.84a3.29,3.29,0,0,0,1.19-.4,2,2,0,0,0,.86-.82,3.15,3.15,0,0,0,.23-1.39c-2.53-1.53-3.83-2.26-6.5-3.65l1.14-.66c2,1.09,3,1.65,4.94,2.82a3.05,3.05,0,0,1,.49.37l0,0a5.63,5.63,0,0,1-.06-.67c-.06-2.15-.06-3.23,0-5.4L35,28c-.09,2.77-.1,4.15,0,6.9a8.26,8.26,0,0,1-.13,1.87,2.79,2.79,0,0,1-.52,1.11A3.56,3.56,0,0,1,33.25,38.77Z"/><path class="cls-8" d="M36.26,27.43c1-.49,1.56-.73,2.6-1.19a5.83,5.83,0,0,1,2.87-.67,1.71,1.71,0,0,1,1.43,1.16,1.73,1.73,0,0,1,0,1.35,2.5,2.5,0,0,1-1.06,1.13l0,.05c1.45-.37,2.38,0,2.81,1.07a2.15,2.15,0,0,1-.12,2,4,4,0,0,1-1.93,1.51c-1.19.52-1.79.79-3,1.35Zm2.6,2.83,1.71-.77a3.51,3.51,0,0,0,1.46-1,1.22,1.22,0,0,0,.06-1.23,1.08,1.08,0,0,0-1-.73,4.14,4.14,0,0,0-1.89.47l-1.56.71Zm.35.77,1.34,2.91,1.79-.8a3.1,3.1,0,0,0,1.42-1,1.43,1.43,0,0,0,.05-1.38,1.27,1.27,0,0,0-1-.85,3.45,3.45,0,0,0-1.84.38Z"/><path class="cls-8" d="M54.37,29.62l-1,.31-1.2-3.85c-1.93.6-2.89.93-4.8,1.62l1.38,3.79-1,.37-3-8,1.1-.41L47,26.87c1.92-.7,2.89-1,4.84-1.63L50.8,21.76l1.11-.34Z"/><path class="cls-8" d="M62.44,27.56c-.68-1-1-1.45-1.72-2.41-1.48.33-2.21.51-3.68.9-.17,1.17-.25,1.76-.4,2.93l-1,.29C56,25.56,56.33,23.7,57,20l.95-.23c2.33,3,3.44,4.5,5.54,7.58Zm-2.25-3.21c-.67-.94-1-1.4-1.7-2.33q-.33-.44-.74-1.09a10.64,10.64,0,0,1-.12,1.3c-.19,1.14-.28,1.71-.45,2.85C58.38,24.77,59,24.62,60.18,24.35Z"/><path class="cls-8" d="M66.87,23.09c-.75,1.57-1.11,2.36-1.8,3.94l-1.24.24c.72-1.67,1.1-2.5,1.89-4.16a3,3,0,0,1-1.67-.62,2.41,2.41,0,0,1-.76-1.41,2,2,0,0,1,.57-1.9,4.83,4.83,0,0,1,2.64-1.08c1.08-.17,1.62-.25,2.7-.39l1.14,8.49-1.06.15-.51-3.54Zm1.32-4.38-1.51.23a3.69,3.69,0,0,0-1.79.67,1.27,1.27,0,0,0-.41,1.29c.2,1.12,1.12,1.52,2.75,1.26L68.66,22Z"/><path class="cls-8" d="M80.22,25.35c-1.36-3-2.08-4.47-3.61-7.42h-.05a20.87,20.87,0,0,1,.24,2.13l.36,5.44-1,.07L75.52,17l1.73-.12c1.43,2.75,2.1,4.13,3.37,6.92h.05c1.1-2.86,1.68-4.29,2.94-7.12h1.72l-.1,8.57H84.17c0-2.21,0-3.31,0-5.52q0-.95.1-2.06h-.05c-1.35,3-2,4.56-3.14,7.62Z"/><path class="cls-8" d="M93.5,25.71c-.35-1.13-.54-1.69-.92-2.81-1.5-.12-2.26-.17-3.76-.24-.51,1.07-.76,1.6-1.25,2.68l-1.08,0c1.53-3.41,2.35-5.1,4.12-8.44l1,.06c1.33,3.54,1.93,5.32,3,8.89ZM92.31,22c-.36-1.09-.54-1.64-.92-2.73Q91.2,18.73,91,18a10.7,10.7,0,0,1-.5,1.21c-.52,1-.77,1.55-1.27,2.59C90.47,21.84,91.09,21.88,92.31,22Z"/><path class="cls-8" d="M100.93,18.77a3.35,3.35,0,0,0-2.67.57A3.46,3.46,0,0,0,97,21.78a3.7,3.7,0,0,0,.54,2.69,3.26,3.26,0,0,0,2.28,1.25,9.77,9.77,0,0,0,2.24,0l-.15.86a7.75,7.75,0,0,1-2.38-.05,4.32,4.32,0,0,1-3-1.56,4.56,4.56,0,0,1-.75-3.37,4.58,4.58,0,0,1,.82-2.24,3.68,3.68,0,0,1,1.82-1.32,5.39,5.39,0,0,1,2.6-.18,6.59,6.59,0,0,1,2.61.93l-.63.76A5.59,5.59,0,0,0,100.93,18.77Z"/><path class="cls-8" d="M106.64,27.77l-1-.23L107.2,20c-1.22-.26-1.84-.38-3.07-.61l.16-.87c2.94.54,4.4.86,7.3,1.59l-.22.86c-1.22-.31-1.83-.45-3-.73Z"/><path class="cls-8" d="M115.76,30.26c-2-.63-3-.92-4.94-1.46L113,20.53c2.15.58,3.22.89,5.35,1.58l-.27.84c-1.67-.54-2.51-.79-4.19-1.26l-.74,2.66c1.54.43,2.31.66,3.84,1.15l-.27.84c-1.52-.49-2.28-.71-3.81-1.14l-.85,3c1.58.44,2.37.68,3.94,1.18Z"/><path class="cls-8" d="M125.52,27.36a2.32,2.32,0,0,1-1.69,1.48,5.17,5.17,0,0,1-2.92-.37l-1.06-.38-1.13,3.17-1-.36,2.79-8.1c1,.34,1.47.51,2.45.88C125.31,24.56,126.15,25.82,125.52,27.36Zm-5.38-.08,1,.34a4.34,4.34,0,0,0,2.18.37,1.52,1.52,0,0,0,1.13-1,1.39,1.39,0,0,0-.13-1.41,3.69,3.69,0,0,0-1.74-1.11L121.31,24Z"/><path class="cls-8" d="M132,28.36a3.2,3.2,0,0,0-4.67,1.72,3.66,3.66,0,0,0-.25,2.73A3.35,3.35,0,0,0,129,34.7a10.22,10.22,0,0,0,2.17.71l-.39.78a8.09,8.09,0,0,1-2.31-.76A4.45,4.45,0,0,1,126,33a4.52,4.52,0,0,1,.24-3.45,4.52,4.52,0,0,1,1.44-1.91,3.71,3.71,0,0,1,2.15-.73,5.56,5.56,0,0,1,2.58.61,6.85,6.85,0,0,1,2.28,1.68l-.83.54A5.8,5.8,0,0,0,132,28.36Z"/><path class="cls-8" d="M138.36,40.71l-1.14-.7c-.61-2.39-.95-3.59-1.71-6l-2.08,3.81-1-.52,4-7.57,1,.56-2,3.64c2.35-.61,3.55-.88,6-1.35l1.17.71c-2.42.46-3.61.73-5.94,1.32C137.48,37.08,137.8,38.29,138.36,40.71Z"/><path class="cls-8" d="M144.43,44.78c.25-1.16.37-1.75.6-2.92-1.29-.91-1.94-1.35-3.25-2.2-1,.65-1.49,1-2.47,1.65l-.95-.59c3.09-2.14,4.68-3.16,8-5.11l.84.57c-.6,3.76-1,5.62-1.78,9.29Zm.82-3.86c.23-1.13.34-1.7.55-2.85q.1-.55.3-1.29a10.41,10.41,0,0,1-1.05.78c-1,.62-1.48.93-2.45,1.56C143.67,39.83,144.2,40.19,145.25,40.92Z"/><path class="cls-8" d="M150.92,45.24c-1.71.46-2.56.7-4.23,1.22l-1.06-.8c1.76-.56,2.65-.82,4.46-1.3a3.14,3.14,0,0,1-.72-1.7,2.34,2.34,0,0,1,.52-1.53,2,2,0,0,1,1.83-.83,5.27,5.27,0,0,1,2.68,1.33c.9.73,1.34,1.1,2.22,1.85L151.07,50l-.86-.73,2.29-2.74Zm4.23-1.88-1.25-1a4,4,0,0,0-1.77-.94,1.26,1.26,0,0,0-1.26.54c-.69.9-.35,1.87,1,3l1.18,1Z"/></g></g></svg>