<svg xmlns="http://www.w3.org/2000/svg" viewBox="0 0 25 25"><defs><style>.cls-1{fill:#262d39;}.cls-2{fill:#f2f2f2;}</style></defs><title>tools-logo_1</title><g id="Слой_2" data-name="Слой 2"><g id="Слой_1-2" data-name="Слой 1"><rect class="cls-1" width="25" height="25"/><path class="cls-2" d="M8.15,18.46c1.13-1.23,2.26-2.47,3.37-3.71,1.37-1.52,2.78-3,4.11-4.59a7.17,7.17,0,0,0,.86-1.06l.18-.33c0-.09.55-.1.67-.12A2.63,2.63,0,0,0,18.64,8,1.62,1.62,0,0,0,19,6.2a2.86,2.86,0,0,0-.39-.61s-.2.15-.19.21l.08.33a2.56,2.56,0,0,1,.06.63c0,.68-.76.66-1.19.62A2.38,2.38,0,0,0,17,7.32c-.19,0-.2-.1-.22-.25a3.34,3.34,0,0,1,0-.73.67.67,0,0,1,.36-.62,1.28,1.28,0,0,1,.61-.12,2.79,2.79,0,0,1,.47.09c.22.06.25,0,.43-.15a1.77,1.77,0,0,0-2.08-.29,3,3,0,0,0-.91,1.18,2.58,2.58,0,0,0-.19.64,2.63,2.63,0,0,0,0,.33c0,.08,0,.09-.12.13a14.14,14.14,0,0,0-1.93,1.58L8.38,13.53c-.49.44-1,.87-1.46,1.31-.7.65-1.43,1.27-2.11,1.94a6,6,0,0,0-.59.61c-.1.13-.13.19-.08.32s.26.24.36.13a3,3,0,0,0,.9-.64l.69-.59.54-.47,2.73-2.44c1.3-1.16,2.59-2.36,3.94-3.46.3-.24.59-.49.91-.71a8.48,8.48,0,0,1,1-.61c0,.07-.07.2-.11.27a2,2,0,0,1-.13.26l-.45.64c-.27.38-.6.74-.9,1.1-.46.57-1,1.11-1.45,1.65L7.69,17.81a12.12,12.12,0,0,0-1.39,1.7c-.15.25.05.64.35.43a2.61,2.61,0,0,0,.4-.36Z"/><path class="cls-2" d="M5.72,10.91a2,2,0,0,1-.19-2A5.86,5.86,0,0,1,6.92,7a5.15,5.15,0,0,1,1-.93c.06,0,.25,0,.32,0s.17-.09.25-.17.3-.35.45-.52.29-.34.45-.5.1,0,.23,0,.16.16.21.21l.47.52c.07.08.23.22.14.33a2.25,2.25,0,0,1-.18.2l-.65.62c-.09.09-.34.26-.33.39s0,.23,0,.33,0,0,0,0,0,0,0,.05l0,0,.44.53c.59.71,1.18,1.42,1.81,2.1,1.38,1.51,2.8,3,4.22,4.44.61.62,1.24,1.22,1.86,1.82l.73.71.63.64a2.67,2.67,0,0,0,.45.44c.54.32-.5,1.15-.77,1.37-.07.06-.18.14-.28.12s-.22-.17-.31-.26L17.57,19c-.68-.71-1.32-1.46-2-2.19C14.42,15.48,13.24,14.18,12,13L9.82,10.77c-.27-.26-.55-.51-.83-.76l-.72-.65c-.06-.05-.26-.3-.34-.26s-.1.09-.2,0l-.31-.21a.66.66,0,0,0-.51,0c-.23,0-.44.4-.53.6a2.51,2.51,0,0,0-.07,1.69,2.18,2.18,0,0,1-.6-.26"/></g></g></svg>