<svg xmlns="http://www.w3.org/2000/svg" viewBox="0 0 253.75 253.69"><defs><style>.cls-1{fill:#7d519e;}.cls-2{fill:#fff;}</style></defs><title>Viber</title><g><g id="Var2"><g><path class="cls-1" d="M126.88,0h0A126.87,126.87,0,0,0,0,126.87H0A126.81,126.81,0,0,0,126.81,253.69h.12A126.81,126.81,0,0,0,253.75,126.88h0A126.87,126.87,0,0,0,126.88,0Z"/></g><g><path id="viber" class="cls-2" d="M172.44,76.63a41.49,41.49,0,0,0-16.83-8.33,120.62,120.62,0,0,0-47.14-2.91,63.94,63.94,0,0,0-23,7.24c-8.41,4.72-14.19,11.51-16.75,20.94a96.16,96.16,0,0,0-3.05,20.5c-.51,10.23-.18,20.38,2.44,30.36,3,11.54,9.61,20,20.9,24.57,1.23.49,2.39,1.17,3.61,1.68a2.24,2.24,0,0,1,1.47,2.44c-.05,8,0,16,0,24.31,3-2.86,5-5,6.5-6.65,4.44-5,8.65-9.2,13.28-14,2.35-2.42,1.36-2.3,5-2.24,4.29.07,11,.24,15.28-.09a113.92,113.92,0,0,0,24-4c10-3,17.94-8.32,22-18.4a59.84,59.84,0,0,0,2.79-8.16c3.89-16,3.37-32.09.12-48.13C181.54,88.3,178.35,81.68,172.44,76.63Zm-49.51,9.72c.08-1.54,1-2.14,2.42-2.07,12.37.59,21.68,4.27,28.84,13.91,4.2,5.65,6.46,13.28,6.69,20.36,0,1.05,0,2.11,0,3.16s-.58,2.07-1.9,2.08-2-.71-2.07-2.06a48,48,0,0,0-3.35-15.16c-3.86-9.41-11.27-14.48-20.79-16.92a45.61,45.61,0,0,0-7.66-1.39C123.92,88.16,122.85,87.91,122.94,86.35Zm12.48,13.14a41.14,41.14,0,0,0-7.71-2c-1.28-.19-2.19-.86-2-2.36a2,2,0,0,1,2.5-1.84c8.63.82,15.38,4,20,11.44a23,23,0,0,1,3.26,12.17c-.14,2.63-.54,3.31-2,3.27-2.19-.06-1.87-1.86-2-3.19a41.46,41.46,0,0,0-1.26-6A16.16,16.16,0,0,0,135.42,99.49ZM142.72,114a15.77,15.77,0,0,1-.2,1.71,1.82,1.82,0,0,1-1.87,1.56,1.87,1.87,0,0,1-1.91-1.53,19.18,19.18,0,0,1-.37-2,8,8,0,0,0-6.12-6.69c-.43-.11-.87-.18-1.29-.29-1.09-.3-2.45-.33-2.5-1.92,0-1.32,1-2.11,2.78-2.22a10.32,10.32,0,0,1,4.25,1.07C140,106,142.16,109.12,142.72,114ZM160.9,150.7a18.25,18.25,0,0,1-12.24,10.64,8.9,8.9,0,0,1-6-.73c-26.17-11.14-45.09-29.53-55.8-56.06a14.23,14.23,0,0,1-1.15-5.74c0-6.83,6-13.15,12.58-13.51A6.16,6.16,0,0,1,103,87a49.81,49.81,0,0,1,11,15.06c1.47,3.1.86,5.29-1.79,7.51-.42.36-.88.67-1.33,1-3.52,2.57-4.31,5.21-2.62,9.26a33.61,33.61,0,0,0,13.32,15.74,28.5,28.5,0,0,0,7.26,3.61,5.2,5.2,0,0,0,5.9-2c.17-.22.34-.44.5-.67,3.37-4.67,7-5.48,11.88-2.45a98,98,0,0,1,11.9,8.78C161.59,145.1,162.24,147.66,160.9,150.7Z"/></g></g></g></svg>