<svg xmlns="http://www.w3.org/2000/svg" viewBox="0 0 253.75 253.69"><defs><style>.cls-1{fill:#3eaa45;}.cls-2{fill:#fff;fill-rule:evenodd;}</style></defs><title>WhatsApp</title><g><g id="Var2"><g><path class="cls-1" d="M126.88,0h0A126.87,126.87,0,0,0,0,126.87H0A126.81,126.81,0,0,0,126.81,253.69h.12A126.81,126.81,0,0,0,253.75,126.88h0A126.87,126.87,0,0,0,126.88,0Z"/></g><g id="Иконки"><g id="whatsapp"><path class="cls-2" d="M128,61.9a63.28,63.28,0,0,0-54.19,95.94L62.42,191.79l35-11.21A63.28,63.28,0,1,0,128,61.9Zm0,115.94a52.38,52.38,0,0,1-29-8.71l-20.24,6.48,6.58-19.56A52.65,52.65,0,1,1,128,177.84Zm29.67-38.29c-1.59-.87-9.38-5.07-10.84-5.67s-2.53-.9-3.67.67-4.37,5.09-5.35,6.14-1.93,1.14-3.52.27a44.11,44.11,0,0,1-12.69-8.5,48.79,48.79,0,0,1-8.57-11.52c-.88-1.65,0-2.49.83-3.27s1.69-1.83,2.53-2.74a11.05,11.05,0,0,0,1.72-2.63,3,3,0,0,0,0-2.83c-.37-.82-3.31-8.89-4.53-12.17s-2.59-2.79-3.53-2.83-2-.21-3.09-.25a5.94,5.94,0,0,0-4.38,1.86,18.12,18.12,0,0,0-6.16,13.26c-.3,7.94,5.2,15.84,6,16.95s10.5,18.33,26.67,25.42,16.26,4.92,19.23,4.76,9.7-3.55,11.19-7.27,1.61-7,1.23-7.64S159.28,140.41,157.69,139.55Z"/></g></g></g></g></svg>