<svg xmlns="http://www.w3.org/2000/svg" viewBox="0 0 253.75 253.69"><defs><style>.cls-1{fill:#2565af;}.cls-2{fill:#fff;}</style></defs><title>loc</title><g><g id="Var2"><g id="Круги"><path class="cls-1" d="M126.88,0h0A126.87,126.87,0,0,0,0,126.87H0A126.81,126.81,0,0,0,126.81,253.69h.12A126.81,126.81,0,0,0,253.75,126.88h0A126.87,126.87,0,0,0,126.88,0Z"/></g><g id="Иконки"><path id="periscope" class="cls-2" d="M126.88,60.44a54.21,54.21,0,0,0-54.21,54.21c0,40.31,43.35,84.6,54.21,84.6s54.21-44.3,54.21-84.6A54.21,54.21,0,0,0,126.88,60.44Zm0,87.28a32.88,32.88,0,0,1-26.65-52.16,13.28,13.28,0,1,0,19.08-12.73,32.89,32.89,0,1,1,7.57,64.9Z"/></g></g></g></svg>