<svg xmlns="http://www.w3.org/2000/svg" viewBox="0 0 691.67 691.67"><defs><style>.cls-1{fill:#4c79ae;}.cls-2{fill:#fff;}</style></defs><title>location</title><g id="Слой_2" data-name="Слой 2"><g id="Capa_3" data-name="Capa 3"><circle class="cls-1" cx="345.83" cy="345.83" r="345.83"/><path class="cls-2" d="M345.83,184.18A104.7,104.7,0,0,0,241.26,288.75c0,23.2,16.15,66.36,48,128.28,23.29,45.27,46.9,84.72,47.14,85.11a11,11,0,0,0,18.87,0c.24-.39,23.85-39.84,47.14-85.11,31.86-61.92,48-105.08,48-128.28A104.7,104.7,0,0,0,345.83,184.18Zm0,290.6c-29.55-51.17-82.58-150.38-82.58-186a82.58,82.58,0,0,1,165.15,0C428.41,324.39,375.38,423.6,345.83,474.77Z"/><path class="cls-2" d="M345.83,242.65a46.1,46.1,0,1,0,46.1,46.1A46.16,46.16,0,0,0,345.83,242.65Zm0,70.21a24.1,24.1,0,1,1,24.1-24.1A24.13,24.13,0,0,1,345.83,312.86Z"/></g></g></svg>