<svg xmlns="http://www.w3.org/2000/svg" viewBox="0 0 691.67 691.67"><defs><style>.cls-1{fill:#4c7aae;}.cls-2{fill:#fff;}</style></defs><title>mail</title><g id="Слой_2" data-name="Слой 2"><g id="Capa_3" data-name="Capa 3"><circle class="cls-1" cx="345.83" cy="345.83" r="345.83"/><path class="cls-2" d="M512,241.78q0-.37,0-.74c0-.11,0-.23,0-.34s-.06-.46-.11-.7,0-.22-.06-.33c-.06-.31-.14-.61-.23-.91h0c0-.13-.09-.26-.14-.39s-.13-.37-.2-.54-.12-.27-.18-.4-.16-.34-.25-.51l-.19-.36c-.1-.18-.21-.36-.32-.53l-.19-.29c-.15-.22-.31-.42-.47-.63l-.11-.15q-.31-.38-.66-.73l-.16-.15c-.18-.17-.36-.34-.55-.5l-.27-.22-.5-.37-.32-.22-.52-.31-.33-.19c-.24-.13-.48-.24-.73-.35l-.39-.16-.64-.23-.39-.11-.58-.15-.4-.08-.65-.1-.35,0c-.34,0-.68-.05-1-.05H190.66c-.34,0-.68,0-1,.05l-.35,0-.65.1-.41.08-.57.15-.4.12-.63.23-.42.17c-.24.11-.48.22-.71.34l-.34.19-.51.31-.33.22-.49.37-.28.23c-.19.16-.36.32-.54.49l-.17.16q-.34.35-.66.72l-.13.17c-.16.2-.31.4-.46.61l-.2.3c-.11.17-.21.34-.31.52l-.2.37c-.08.16-.16.32-.24.49s-.13.28-.19.42-.12.33-.18.5-.11.29-.15.44h0c-.09.3-.17.6-.23.91,0,.11,0,.23-.06.35s-.08.45-.1.68,0,.23,0,.34,0,.49,0,.74c0,.06,0,.12,0,.18V449.7a11,11,0,0,0,11,11H501a11,11,0,0,0,11-11V242C512,241.9,512,241.84,512,241.78ZM464.79,253l-119,79.63L226.87,253ZM201.66,438.7V262.57l138,92.41A11,11,0,0,0,352,355l138-92.41V438.7Z"/></g></g></svg>