<svg xmlns="http://www.w3.org/2000/svg" viewBox="0 0 691.67 691.67"><defs><style>.cls-1{fill:#4c7aae;}.cls-2{fill:#fff;}</style></defs><title>master</title><g id="Слой_2" data-name="Слой 2"><g id="Capa_3" data-name="Capa 3"><circle class="cls-1" cx="345.83" cy="345.83" r="345.83"/><path class="cls-2" d="M314.28,349.92a50.84,50.84,0,1,0-87.56,0c-15.07,7.44-25.66,24.68-25.66,44.71v12.79a11,11,0,0,0,11,11H328.94a11,11,0,0,0,11-11V394.63C339.94,374.6,329.35,357.36,314.28,349.92Zm3.66,46.5H223.06v-1.79c0-14.43,9.28-26.62,20.26-26.62h4.77a11,11,0,0,0,6.2-20.09,28.84,28.84,0,1,1,32.43,0,11,11,0,0,0,6.2,20.09h4.77c11,0,20.26,12.19,20.26,26.62Z"/><path class="cls-2" d="M498.15,207.51H193.51a46.18,46.18,0,0,0-46.13,46.13V438a46.18,46.18,0,0,0,46.13,46.13H498.15A46.18,46.18,0,0,0,544.28,438V253.63A46.18,46.18,0,0,0,498.15,207.51ZM522.28,438a24.15,24.15,0,0,1-24.13,24.13H193.51A24.15,24.15,0,0,1,169.39,438V253.63a24.15,24.15,0,0,1,24.13-24.13H498.15a24.15,24.15,0,0,1,24.13,24.13Z"/><path class="cls-2" d="M466.34,316.76H381.52a11,11,0,0,0,0,22h84.82a11,11,0,0,0,0-22Z"/><path class="cls-2" d="M466.34,352.9H381.52a11,11,0,0,0,0,22h84.82a11,11,0,0,0,0-22Z"/></g></g></svg>