<?xml version="1.0" encoding="utf-8"?>
<!-- Generator: Adobe Illustrator 21.0.0, SVG Export Plug-In . SVG Version: 6.00 Build 0)  -->
<svg version="1.1" id="Слой_1" xmlns="http://www.w3.org/2000/svg" xmlns:xlink="http://www.w3.org/1999/xlink" x="0px" y="0px"
	 viewBox="0 0 691.7 691.7" style="enable-background:new 0 0 691.7 691.7;" xml:space="preserve">
<style type="text/css">
	.st0{fill:#2565AF;}
	.st1{fill:#FFFFFF;stroke:#FFFFFF;stroke-width:3;stroke-miterlimit:10;}
</style>
<title>master</title>
<g id="Слой_2">
	<g id="Capa_3">
		<circle class="st0" cx="345.8" cy="345.8" r="345.8"/>
		<path class="st1" d="M314.3,349.9c14.3-24.2,6.2-55.4-17.9-69.6c-24.2-14.3-55.4-6.2-69.6,17.9c-9.4,15.9-9.4,35.7,0,51.7
			c-15.1,7.4-25.7,24.7-25.7,44.7v12.8c0,6.1,4.9,11,11,11h116.9c6.1,0,11-4.9,11-11v-12.8C339.9,374.6,329.4,357.4,314.3,349.9z
			 M317.9,396.4h-94.9v-1.8c0-14.4,9.3-26.6,20.3-26.6h4.8c6.1,0,11-4.9,11-11c0-3.6-1.8-7-4.8-9.1c-13.2-9-16.6-26.9-7.6-40.1
			c9-13.2,26.9-16.6,40.1-7.6s16.6,26.9,7.6,40.1c-2,3-4.6,5.6-7.6,7.6c-5,3.4-6.3,10.3-2.9,15.3c2,3,5.5,4.8,9.1,4.8h4.8
			c11,0,20.3,12.2,20.3,26.6L317.9,396.4z"/>
		<path class="st1" d="M498.1,207.5H193.5c-25.5,0-46.1,20.7-46.1,46.1V438c0,25.5,20.7,46.1,46.1,46.1h304.6
			c25.5,0,46.1-20.7,46.1-46.1V253.6C544.2,228.2,523.6,207.5,498.1,207.5z M522.3,438c0,13.3-10.8,24.1-24.1,24.1H193.5
			c-13.3,0-24.1-10.8-24.1-24.1V253.6c0-13.3,10.8-24.1,24.1-24.1h304.6c13.3,0,24.1,10.8,24.1,24.1L522.3,438z"/>
		<path class="st1" d="M466.3,316.8h-84.8c-6.1,0-11,4.9-11,11s4.9,11,11,11h84.8c6.1,0,11-4.9,11-11S472.4,316.8,466.3,316.8z"/>
		<path class="st1" d="M466.3,352.9h-84.8c-6.1,0-11,4.9-11,11s4.9,11,11,11h84.8c6.1,0,11-4.9,11-11S472.4,352.9,466.3,352.9z"/>
	</g>
</g>
</svg>
