<?xml version="1.0" encoding="utf-8"?>
<!-- Generator: Adobe Illustrator 21.0.0, SVG Export Plug-In . SVG Version: 6.00 Build 0)  -->
<svg version="1.1" id="Слой_1" xmlns="http://www.w3.org/2000/svg" xmlns:xlink="http://www.w3.org/1999/xlink" x="0px" y="0px"
	 viewBox="0 0 691.7 691.7" style="enable-background:new 0 0 691.7 691.7;" xml:space="preserve">
<style type="text/css">
	.st0{fill:#2565AF;}
	.st1{fill:#FFFFFF;stroke:#FFFFFF;stroke-width:3;stroke-miterlimit:10;}
</style>
<title>social</title>
<g id="Слой_2">
	<g id="Capa_3">
		<circle class="st0" cx="345.8" cy="345.8" r="345.8"/>
		<path class="st1" d="M345.8,199.4c-85.6,0-155.2,60.7-155.2,135.3c0,32.6,13.3,63.8,37.6,88.3L216.4,479c-1.3,5.9,2.6,11.8,8.5,13
			c2.6,0.5,5.2,0.2,7.5-1.1l56.3-30.5c18.4,6.3,37.7,9.5,57.1,9.5c85.6,0,155.2-60.7,155.2-135.2S431.4,199.4,345.8,199.4z
			 M345.8,447.9c-18.5,0.1-36.8-3.2-54.1-9.8c-3-1.1-6.3-0.9-9.1,0.6l-39.7,21.5l8.1-38.7c0.8-3.8-0.5-7.7-3.3-10.3
			c-22.6-21-35.1-48.1-35.1-76.5c0-62.5,59.7-113.3,133.2-113.3S479,272.2,479,334.6S419.3,447.9,345.8,447.9z"/>
		<path class="st1" d="M422.3,296.5H269.4c-6.1,0-11,4.9-11,11s4.9,11,11,11h152.9c6.1,0,11-4.9,11-11S428.3,296.5,422.3,296.5z"/>
		<path class="st1" d="M422.3,348.2H269.4c-6.1,0-11,4.9-11,11s4.9,11,11,11l0,0h152.9c6.1,0,11-4.9,11-11S428.3,348.2,422.3,348.2z
			"/>
	</g>
</g>
</svg>
