<svg xmlns="http://www.w3.org/2000/svg" viewBox="0 0 691.67 691.67"><defs><style>.cls-1{fill:#4c7aae;}.cls-2{fill:#fff;}</style></defs><title>social</title><g id="Слой_2" data-name="Слой 2"><g id="Capa_3" data-name="Capa 3"><circle class="cls-1" cx="345.83" cy="345.83" r="345.83"/><path class="cls-2" d="M345.83,199.38c-85.57,0-155.18,60.68-155.18,135.26,0,32.63,13.3,63.75,37.59,88.3L216.43,479a11,11,0,0,0,16,11.94l56.27-30.5a174.43,174.43,0,0,0,57.12,9.46C431.4,469.91,501,409.23,501,334.65S431.4,199.38,345.83,199.38Zm0,248.53a152,152,0,0,1-54.12-9.77,11,11,0,0,0-9.14.61l-39.71,21.52L251,421.54a11,11,0,0,0-3.29-10.34c-22.62-21-35.08-48.14-35.08-76.55,0-62.45,59.74-113.26,133.18-113.26S479,272.19,479,334.65,419.27,447.91,345.83,447.91Z"/><path class="cls-2" d="M422.27,296.53H269.4a11,11,0,0,0,0,22H422.27a11,11,0,0,0,0-22Z"/><path class="cls-2" d="M422.27,348.23H269.4a11,11,0,1,0,0,22H422.27a11,11,0,1,0,0-22Z"/></g></g></svg>