<svg xmlns="http://www.w3.org/2000/svg" viewBox="0 0 691.67 691.67"><defs><style>.cls-1{fill:#4c7aae;}.cls-2{fill:#fff;}</style></defs><title>tel</title><g id="Слой_2" data-name="Слой 2"><g id="Capa_3" data-name="Capa 3"><circle class="cls-1" cx="345.83" cy="345.83" r="345.83"/><path class="cls-2" d="M413,142.83H278.67a50.94,50.94,0,0,0-50.89,50.89V497.95a50.94,50.94,0,0,0,50.89,50.89H413a50.94,50.94,0,0,0,50.89-50.89V193.72A50.94,50.94,0,0,0,413,142.83Zm-134.32,22H413a28.92,28.92,0,0,1,28.89,28.89v16.76H249.79V193.72A28.92,28.92,0,0,1,278.67,164.83Zm163.2,294.36H249.79V232.48H441.88ZM413,526.83H278.67a28.92,28.92,0,0,1-28.89-28.89V481.19H441.88v16.76A28.92,28.92,0,0,1,413,526.83Z"/><path class="cls-2" d="M364.49,494H327.18a11,11,0,1,0,0,22h37.31a11,11,0,0,0,0-22Z"/></g></g></svg>