<svg xmlns="http://www.w3.org/2000/svg" viewBox="0 0 253.75 253.69"><defs><style>.cls-1{fill:#2565af;}.cls-2{fill:#fff;}</style></defs><title>web</title><g id="Слой_2" data-name="Слой 2"><g id="Var2"><g id="Круги"><path class="cls-1" d="M126.81,253.69h.12A126.81,126.81,0,0,0,253.75,126.88h0A126.87,126.87,0,0,0,126.88,0h0A126.87,126.87,0,0,0,0,126.87H0A126.81,126.81,0,0,0,126.81,253.69Z"/><path class="cls-2" d="M79.49,79.5H78.3a3.57,3.57,0,1,0,0,7.09h1.19a3.57,3.57,0,1,0,0-7.09Z"/><path class="cls-2" d="M97.1,79.5H95.91a3.57,3.57,0,1,0,0,7.09H97.1a3.57,3.57,0,1,0,0-7.09Z"/><path class="cls-2" d="M114.71,79.5h-1.19a3.57,3.57,0,1,0,0,7.09h1.19a3.57,3.57,0,1,0,0-7.09Z"/><path class="cls-2" d="M181.78,63h-110c-8.9,0-16.22,6.56-16.22,14.54v98.77c0,7.8,7.32,14.36,16.22,14.36H182c8.9,0,16.22-6.56,16.22-14.54V77.55C198,69.57,190.68,63,181.78,63Zm8.31,113.13c0,4.08-3.76,7.45-8.31,7.45h-110c-4.55,0-8.31-3.37-8.31-7.45V102.91h109a3.57,3.57,0,1,0,0-7.09h-109V77.55c0-4.08,3.76-7.45,8.31-7.45H182c4.35,0,8.11,3.37,8.11,7.45Z"/><path class="cls-2" d="M140.63,129.68h-2.18a1.49,1.49,0,0,0-1.58,1.06l-3.76,11.53-3.17-11.53a1.49,1.49,0,0,0-1.58-1.06h-3a1.71,1.71,0,0,0-1.58,1.06l-3.36,11.53-3.76-11.53a1.49,1.49,0,0,0-1.58-1.06h-2a1.51,1.51,0,0,0-1.58,2l5.74,16.31a1.49,1.49,0,0,0,1.58,1.06h3a1.71,1.71,0,0,0,1.58-1.06l3.36-11.35,3.36,11.35a1.49,1.49,0,0,0,1.58,1.06h3a1.49,1.49,0,0,0,1.58-1.06L142,131.63A1.42,1.42,0,0,0,140.63,129.68Z"/><path class="cls-2" d="M172.88,129.68H170.7a1.49,1.49,0,0,0-1.58,1.06l-3.76,11.53L162,130.75a1.49,1.49,0,0,0-1.58-1.06h-3a1.71,1.71,0,0,0-1.58,1.06l-3.36,11.53-3.76-11.53a1.49,1.49,0,0,0-1.58-1.06h-2a1.51,1.51,0,0,0-1.58,2l5.74,16.31a1.49,1.49,0,0,0,1.58,1.06h3a1.71,1.71,0,0,0,1.58-1.06l3.36-11.35,3.36,11.35a1.49,1.49,0,0,0,1.58,1.06h3a1.49,1.49,0,0,0,1.58-1.06l5.94-16.31A1.42,1.42,0,0,0,172.88,129.68Z"/><path class="cls-2" d="M108.18,129.68H106a1.49,1.49,0,0,0-1.58,1.06l-3.76,11.53L97.3,130.75a1.49,1.49,0,0,0-1.58-1.06h-3a1.71,1.71,0,0,0-1.58,1.06L87.8,142.27,84,130.75a1.49,1.49,0,0,0-1.58-1.06h-2a1.51,1.51,0,0,0-1.58,2l5.74,16.31A1.49,1.49,0,0,0,86.22,149h3a1.71,1.71,0,0,0,1.58-1.06l3.36-11.35,3.36,11.35A1.49,1.49,0,0,0,99.08,149h3a1.49,1.49,0,0,0,1.58-1.06l5.94-16.31C110.16,130.57,109.36,129.68,108.18,129.68Z"/></g></g></g></svg>